<?xml version="1.0" standalone="no"?>
<!DOCTYPE svg PUBLIC "-//W3C//DTD SVG 20010904//EN"
 "http://www.w3.org/TR/2001/REC-SVG-20010904/DTD/svg10.dtd">
<svg version="1.0" xmlns="http://www.w3.org/2000/svg"
 width="512.000000pt" height="512.000000pt" viewBox="0 0 512.000000 512.000000"
 preserveAspectRatio="xMidYMid meet">
<metadata>
Created by potrace 1.14, written by Peter Selinger 2001-2017
</metadata>
<g transform="translate(0.000000,512.000000) scale(0.100000,-0.100000)"
fill="#000000" stroke="none">
<path d="M670 4945 l0 -175 28 5 28 5 0 -2130 c0 -1911 -2 -2130 -16 -2131 -8
-1 -21 -1 -27 0 -10 1 -13 -39 -13 -174 l0 -176 -152 1 c-84 1 -162 1 -173 1
-19 -1 -20 -8 -20 -86 l0 -85 517 0 518 0 0 85 c0 74 -2 85 -17 86 -10 0 -88
0 -174 0 l-155 -1 0 173 c1 131 -2 172 -11 173 -7 1 -21 2 -30 3 -17 1 -18 59
-16 1087 1 597 4 1091 6 1097 3 9 210 12 833 11 456 -1 832 -2 835 -3 3 -1 5
-85 5 -188 l0 -188 1077 -3 c592 -1 1077 0 1077 2 0 3 -14 24 -30 48 -45 64
-147 210 -159 227 -7 9 -97 138 -201 286 -104 149 -209 299 -234 334 l-45 63
31 47 c32 47 144 206 316 451 53 74 116 164 140 200 25 36 76 109 114 162 37
53 68 99 68 101 0 3 -354 5 -787 5 -434 0 -811 1 -838 1 l-50 1 0 188 0 187
-1080 0 -1080 0 0 71 0 71 28 -2 c15 -1 28 0 28 4 1 3 2 81 3 174 l1 167 -172
0 -173 0 0 -175z"/>
</g>
</svg>
